<svg width="217" height="200" viewBox="0 0 217 200" fill="none" xmlns="http://www.w3.org/2000/svg">
<path d="M216.874 111.472C215.743 113.791 213.876 114.526 211.331 114.47C202.167 114.357 193.004 114.47 183.783 114.413C182.539 114.413 181.973 114.696 181.634 115.997C175.355 139.019 162.175 157.007 142.264 170.131C141.811 170.414 141.359 170.753 140.793 171.149C141.472 172.393 142.094 173.581 142.716 174.713C146.167 180.765 149.618 186.818 153.011 192.927C155.161 196.717 153.294 199.941 148.995 199.941C142.151 199.941 135.306 199.885 128.462 199.998C126.312 199.998 124.842 199.149 123.823 197.339C121.278 192.701 118.563 188.175 116.074 183.537C115.395 182.349 114.716 182.066 113.415 182.349C99.3869 185.63 85.3585 185.63 71.3301 182.349C69.8594 182.01 69.1806 182.406 68.5018 183.65C66.0695 188.175 63.4109 192.587 60.9786 197.113C59.9038 199.093 58.3765 200.054 56.0573 199.998C49.2128 199.885 42.3684 199.998 35.5239 199.941C31.4511 199.941 29.5279 196.717 31.5077 193.153C35.0713 186.761 38.7481 180.426 42.3118 174.034C42.8209 173.129 43.33 172.224 43.8956 171.206C41.237 169.282 38.5784 167.585 36.1461 165.606C16.6874 150.333 4.75197 130.535 1.07518 106.098C-5.65617 62.4857 19.7985 20.1178 61.2048 5.4106C112.114 -12.6905 167.21 16.2147 181.464 68.4251C181.917 70.0655 182.595 70.4615 184.179 70.4615C193.23 70.4049 202.224 70.4615 211.274 70.4049C213.82 70.3484 215.687 71.0837 216.818 73.4029C216.818 74.3646 216.818 75.3827 216.818 76.3444C211.388 81.4919 205.957 86.6959 199.961 92.4657C206.014 98.2354 211.444 103.383 216.818 108.587C216.874 109.492 216.874 110.51 216.874 111.472ZM173.036 70.4615C164.551 36.1259 128.688 2.97826 80.4938 9.42679C39.0875 15.0268 4.75197 52.8695 8.88129 100.102C12.3884 140.321 45.7058 175.222 90.506 176.24C135.815 177.258 166.135 143.941 172.979 114.413C170.038 115.036 168.171 113.508 166.361 111.528C164.607 109.605 162.684 107.795 160.818 105.985C159.573 104.797 158.329 103.553 156.971 102.195C156.745 103.383 156.519 104.288 156.349 105.193C149.561 140.038 115.452 163.23 80.6635 156.668C46.8371 150.333 23.7581 119.391 27.5481 85.3383C29.641 66.5019 38.4087 51.3988 53.4553 40.0856C67.5968 29.4512 83.6615 25.6047 101.14 27.7542C109.003 28.7158 116.526 31.2047 123.484 35.0512C126.029 36.4653 126.821 38.8411 125.577 41.1037C124.389 43.2533 122.013 43.8755 119.524 42.6876C119.185 42.5179 118.902 42.3482 118.563 42.1785C107.193 36.3522 95.201 34.4855 82.6433 36.635C52.0411 41.8957 31.7905 70.2352 36.3724 101.233C40.8411 131.327 69.5201 153.048 99.5566 148.636C121.844 145.355 137.23 132.854 145.488 111.868C147.355 107.06 148.43 102.082 148.712 96.6516C142.773 96.6516 137.003 96.595 131.234 96.7081C130.838 96.7081 130.102 97.6697 130.046 98.2354C127.387 115.545 112.963 129.12 95.7101 130.478C70.4817 132.514 50.3442 110.454 54.6997 85.6212C57.6977 68.7079 72.8574 55.1887 89.4878 54.2836C110.304 53.1523 125.294 67.1807 129.197 82.5666C129.65 84.3767 129.989 86.2434 130.385 87.997C136.551 87.997 142.603 87.997 148.882 87.997C148.599 85.8475 148.373 83.9242 148.034 82.001C147.015 76.1181 144.979 70.6312 142.207 65.314C140.906 62.7685 141.585 60.2796 143.791 59.1483C146.054 57.9604 148.373 58.8089 149.787 61.4109C150.296 62.316 150.749 63.2776 151.201 64.2392C154.03 70.009 155.783 76.1181 156.915 82.7929C160.082 79.5686 163.08 76.6838 165.965 73.6858C167.888 71.6494 169.812 69.7261 173.036 70.4615ZM121.504 88.1101C119.751 74.3646 107.193 61.7503 90.506 62.8817C74.1585 64.013 62.1099 77.4757 62.6756 93.3142C63.2412 109.04 75.9686 121.654 91.6939 122.05C106.401 122.389 120.373 110.567 121.391 96.7647C116.47 96.7647 111.605 96.7647 106.684 96.7647C106.684 97.3869 106.684 97.896 106.684 98.3485C106.514 101.516 103.516 103.553 100.688 102.082C97.0111 100.159 93.3909 98.0657 89.8838 95.8596C87.3949 94.2758 87.2252 90.599 89.6575 89.0717C93.2778 86.7525 97.0111 84.603 100.801 82.6797C103.403 81.3222 106.401 83.302 106.627 86.2434C106.684 86.8656 106.627 87.4879 106.627 88.1666C111.718 88.1101 116.583 88.1101 121.504 88.1101ZM163.533 88.2232C171.452 88.2232 178.692 87.8838 185.933 88.3363C191.137 88.6757 195.04 87.3747 198.095 83.1889C199.169 81.7181 200.64 80.5868 202.28 78.8898C192.381 78.8898 183.161 78.8898 173.941 78.9464C173.375 78.9464 172.696 79.2292 172.3 79.6252C169.472 82.2838 166.757 84.999 163.533 88.2232ZM201.658 105.985C201.771 105.815 201.828 105.702 201.941 105.532C199.339 102.987 196.794 100.328 194.135 97.896C193.456 97.2738 192.325 96.7647 191.42 96.7647C182.822 96.6516 174.224 96.7081 165.626 96.7081C165.117 96.7081 164.607 96.8213 163.816 96.8778C166.757 99.8193 169.416 102.534 172.131 105.136C172.583 105.589 173.319 105.928 173.941 105.928C183.218 105.985 192.438 105.985 201.658 105.985ZM61.0351 179.521C57.7543 178.107 54.6432 176.806 51.4189 175.448C48.4209 180.822 45.4229 186.026 42.3118 191.569C46.2148 191.569 49.8351 191.626 53.3987 191.513C53.9078 191.513 54.5866 190.891 54.926 190.381C56.9624 186.818 58.9422 183.254 61.0351 179.521ZM133.27 175.391C129.989 176.806 126.821 178.163 123.654 179.521C125.803 183.311 127.84 186.931 129.876 190.495C130.102 190.891 130.498 191.456 130.838 191.456C134.571 191.513 138.304 191.513 142.32 191.513C139.209 185.969 136.268 180.765 133.27 175.391Z" fill="#011640"/>
</svg>
