<svg width="238" height="200" viewBox="0 0 238 200" fill="none" xmlns="http://www.w3.org/2000/svg">
<g clip-path="url(#clip0_50_14)">
<path d="M237.276 45.3252C235.914 46.8732 234.242 47.3685 232.199 47.3066C228.793 47.1828 225.387 47.3066 222.044 47.2447C219.567 47.2447 217.957 45.8205 217.957 43.7772C217.957 41.7338 219.567 40.2478 221.982 40.2478C225.759 40.1859 229.536 40.3097 233.313 40.1859C235.171 40.1239 236.285 41.1146 237.276 42.5388C237.276 43.5295 237.276 44.3964 237.276 45.3252Z" fill="#011640"/>
<path d="M216.348 85.6347C214.985 85.6347 214.366 85.6347 213.747 85.6347C195.419 85.6347 177.152 85.6347 158.824 85.5727C157.152 85.5727 156.471 86.0062 156.038 87.7399C147.369 120.743 138.639 153.684 129.97 186.625C129.846 186.997 129.846 187.368 129.722 188.235C130.527 187.368 130.961 186.935 131.394 186.44C143.221 172.57 155.047 158.7 166.874 144.892C167.369 144.334 167.865 143.715 168.422 143.158C170.032 141.548 171.827 141.424 173.375 142.786C174.923 144.087 175.109 146.006 173.685 147.74C170.527 151.579 167.307 155.294 164.087 159.071C155.171 169.536 146.193 179.938 137.338 190.464C133.252 195.294 128.546 198.824 122.168 199.752C113.809 200.991 106.936 198.266 101.487 192.012C90.8986 179.814 80.4961 167.492 70.0317 155.232C53.2515 135.542 36.4714 115.851 19.6292 96.2229C14.8614 90.712 12.5085 84.582 14.5518 77.4613C15.2949 74.7368 16.9667 72.0743 18.8862 69.969C30.2175 57.8328 41.7345 45.8823 53.1896 33.808C57.8955 28.8545 63.7159 26.3777 70.5271 26.3777C93.3135 26.3777 116.1 26.3777 138.886 26.4396C140.125 26.4396 141.735 26.6873 142.478 27.4922C143.283 28.2972 143.84 30.2786 143.406 31.1455C142.849 32.26 141.177 33.3746 139.877 33.4984C136.286 33.808 132.632 33.6223 128.979 33.6223C127.988 33.6223 126.998 33.6223 125.388 33.6223C134.923 47.7399 144.211 61.4241 153.685 75.4179C161.363 62.3529 168.917 49.5356 176.533 36.5944C174.366 34.7987 172.013 33.808 169.351 33.7461C165.326 33.6223 161.301 33.7461 157.338 33.4984C156.038 33.4365 154.428 32.7554 153.561 31.8266C151.951 29.9071 153.313 26.6873 155.914 26.6254C162.478 26.4396 169.289 25.387 175.604 28.1114C178.7 29.4737 181.735 31.4551 184.087 33.8699C195.666 45.7585 207.06 57.8328 218.515 69.9071C224.954 76.7182 225.45 86.6873 219.382 94.1795C211.765 103.529 203.84 112.57 196.038 121.734C192.323 126.068 188.608 130.402 184.892 134.737C183.592 136.223 182.106 136.966 180.187 136.037C178.019 134.984 177.648 132.384 179.505 130.217C184.459 124.396 189.413 118.576 194.366 112.755C200.682 105.325 206.998 97.9566 213.313 90.5263C214.304 89.226 215.047 87.6161 216.348 85.6347ZM88.1122 85.6966C88.2361 86.2538 88.298 86.6873 88.4218 87.1207C97.524 121.672 106.688 156.161 115.728 190.712C116.162 192.446 116.905 192.941 118.515 192.941C120.125 192.941 121.053 192.632 121.549 190.712C128.236 165.077 135.047 139.505 141.796 113.932C144.273 104.582 146.75 95.1703 149.227 85.6966C128.793 85.6966 108.484 85.6966 88.1122 85.6966ZM20.8676 85.6347C22.2918 87.8018 23.1587 89.4737 24.3971 90.8978C50.1556 121.176 75.976 151.455 101.796 181.672C103.592 183.777 105.388 185.82 107.555 188.359C107.369 187.306 107.369 186.935 107.307 186.563C98.5766 153.622 89.846 120.619 81.2392 87.678C80.8057 85.9443 80.0627 85.5727 78.4528 85.5727C60.1246 85.6347 41.8583 85.6347 23.5302 85.6347C22.911 85.6347 22.2918 85.6347 20.8676 85.6347ZM118.639 36.3467C109.103 50.4644 99.7531 64.2724 90.1556 78.3282C109.289 78.3282 127.926 78.3282 147.06 78.3282C137.586 64.2105 128.174 50.4025 118.639 36.3467ZM60.4342 36.0371C68.3599 49.5356 75.9141 62.3529 83.5921 75.4179C93.1277 61.3622 102.416 47.678 111.704 33.9319C111.27 33.7461 111.146 33.6223 111.022 33.6223C96.5952 33.6223 82.1679 33.5603 67.7407 33.808C65.4497 33.8699 63.1587 35.1703 60.4342 36.0371ZM181.796 41.548C174.552 53.9319 167.431 65.9443 160.248 78.2662C178.886 78.2662 197.152 78.2662 215.419 78.2662C215.604 78.0805 215.728 77.8328 215.914 77.647C204.831 65.4489 193.19 53.808 181.796 41.548ZM77.1525 78.3282C69.9079 65.9443 62.7871 53.8699 55.5426 41.6099C44.6447 53.0031 33.9327 64.2724 23.2825 75.5418C22.6014 76.2848 22.1679 77.2136 21.5488 78.3282C40.2484 78.3282 58.4528 78.3282 77.1525 78.3282Z" fill="#011640"/>
<path d="M15.0465 11.3933C16.2849 12.0744 17.2756 12.4459 17.9567 13.0651C20.7431 15.7277 23.4675 18.4521 26.1301 21.2385C27.8019 22.9723 27.8638 25.1394 26.3778 26.5636C24.8917 27.9877 22.9722 27.9877 21.2384 26.3159C18.3901 23.5915 15.5418 20.867 13.0031 17.9568C12.1982 17.028 11.8886 15.2323 12.1982 14.0558C12.5078 13.0032 13.9939 12.3221 15.0465 11.3933Z" fill="#011640"/>
<path d="M226.006 15.1084C225.263 16.3468 224.767 17.4613 224.024 18.2663C221.486 20.9288 218.823 23.5295 216.222 26.1301C214.303 27.9877 212.26 28.0496 210.774 26.4397C209.411 24.9536 209.597 22.8483 211.269 21.1146C213.993 18.3901 216.594 15.5418 219.504 13.0031C220.433 12.1982 222.229 11.9505 223.467 12.2601C224.458 12.5697 225.139 14.0558 226.006 15.1084Z" fill="#011640"/>
<path d="M40.2482 9.9072C40.2482 7.80194 40.1863 5.7586 40.2482 3.65333C40.3101 1.54807 41.7343 0.0620033 43.6538 8.38163e-05C45.6352 -0.0618357 47.1832 1.48615 47.2451 3.71525C47.307 7.74002 47.307 11.7029 47.2451 15.7276C47.1832 17.8329 45.7591 19.319 43.8396 19.319C41.8581 19.3809 40.3721 17.8948 40.3101 15.6038C40.1863 13.7462 40.2482 11.8267 40.2482 9.9072Z" fill="#011640"/>
<path d="M190.031 9.59762C190.031 7.67811 189.97 5.75861 190.031 3.8391C190.093 1.61 191.579 0.0620117 193.561 0.0620117C195.542 0.0620117 196.966 1.61 197.028 3.90102C197.09 7.80195 197.09 11.7648 197.028 15.6657C196.966 17.9567 195.542 19.4428 193.561 19.4428C191.579 19.4428 190.155 17.9567 190.093 15.6657C190.031 13.5605 190.031 11.579 190.031 9.59762Z" fill="#011640"/>
<path d="M9.72136 47.2446C7.6161 47.2446 5.57276 47.3065 3.46749 47.2446C1.30031 47.1827 0 45.7585 0 43.7771C0 41.7957 1.36223 40.3096 3.52941 40.3096C7.6161 40.2477 11.7028 40.2477 15.7895 40.3096C17.8328 40.3715 19.3808 41.9815 19.3808 43.839C19.3808 45.6966 17.8947 47.1827 15.7895 47.2446C13.7461 47.3065 11.7028 47.2446 9.72136 47.2446Z" fill="#011640"/>
</g>
<defs>
<clipPath id="clip0_50_14">
<rect width="237.276" height="200" fill="white"/>
</clipPath>
</defs>
</svg>
