<svg width="286" height="200" viewBox="0 0 286 200" fill="none" xmlns="http://www.w3.org/2000/svg">
<path d="M284.955 134.077C281.385 139.822 279.155 139.599 271.737 132.683C239.668 176.297 196.668 200 142.401 200C88.2464 200 45.3018 176.353 13.0655 132.571C12.2289 133.52 11.2808 134.523 10.3885 135.472C7.59985 138.428 4.30929 138.874 1.85532 136.699C-0.654433 134.468 -0.654433 131.177 2.0784 128.11C11.1693 117.848 21.1525 108.366 31.8607 99.7216C52.2734 83.3246 74.5265 70.3297 99.6239 62.3543C133.087 51.7576 165.937 53.8211 198.285 66.9834C231.469 80.4802 259.132 101.674 283.003 128.11C283.728 128.946 284.341 129.839 285.066 130.675V134.077H284.955ZM137.047 189.236C155.285 189.069 167.833 187.563 180.159 184.105C214.347 174.512 242.066 155.773 262.256 126.325C263.427 124.652 263.427 123.648 261.865 122.198C246.082 107.307 228.848 94.3675 209.551 84.3285C190.254 74.2895 169.897 67.8757 148.09 66.816C129.127 65.9237 110.834 69.4931 93.2102 76.3531C67.4434 86.3363 45.1903 101.841 25.0565 120.58C20.5948 124.763 20.4832 123.146 24.3315 128.389C53.4446 168.489 93.6005 187.396 137.047 189.236Z" fill="#011640"/>
<path d="M75.5309 50.6418C74.8059 50.2514 73.1885 49.6937 72.073 48.634C64.3765 41.1048 56.7915 33.5198 49.2064 25.8232C46.6967 23.2577 46.5851 19.9114 48.816 17.6247C51.0469 15.3938 54.449 15.3938 57.0145 17.9036C64.7111 25.5444 72.3519 33.2409 80.0485 40.8817C81.8889 42.7222 82.4467 44.8415 81.4428 47.2397C80.5504 49.4149 78.8215 50.5303 75.5309 50.6418Z" fill="#011640"/>
<path d="M237.715 22.31C237.325 23.0351 236.767 24.6525 235.708 25.7679C228.178 33.4645 220.593 41.0495 212.897 48.6345C210.331 51.2 206.985 51.2558 204.698 49.0249C202.356 46.7382 202.467 43.3361 205.144 40.6591C212.674 33.0741 220.203 25.6006 227.732 18.0156C229.628 16.1193 231.804 15.3943 234.313 16.3982C236.544 17.2905 237.66 19.0195 237.715 22.31Z" fill="#011640"/>
<path d="M148.035 22.4771C148.035 27.7755 148.035 33.0181 148.035 38.3164C148.035 41.9974 145.86 44.3398 142.625 44.3956C139.279 44.4514 136.992 42.0532 136.992 38.2607C136.992 27.5524 136.992 16.7884 136.992 6.08012C136.992 2.39916 139.167 0.0567244 142.402 0.000952223C145.748 -0.05482 148.035 2.34338 148.035 6.13589C148.035 11.5458 148.035 17.0115 148.035 22.4771Z" fill="#011640"/>
<path d="M142.624 83.436C165.658 83.436 185.178 101.45 186.907 124.261C188.803 147.741 172.127 168.6 148.814 171.946C122.155 175.795 97.9502 154.992 98.006 128.333C98.006 124.15 99.958 121.751 103.472 121.751C106.985 121.696 108.993 123.982 109.105 128.165C109.551 147.072 125 161.907 143.739 161.294C160.805 160.736 174.972 146.849 175.92 129.671C176.868 112.716 164.319 97.379 147.532 94.8693C141.174 93.9212 135.206 94.8693 129.294 97.1559C124.888 98.8849 120.873 95.8174 121.43 91.4114C121.709 89.0132 123.215 87.6189 125.334 86.7823C130.744 84.5514 136.656 83.3802 142.624 83.436Z" fill="#011640"/>
<path d="M159.133 127.942C159.133 137.145 151.66 144.618 142.457 144.618C133.255 144.618 125.781 137.145 125.781 127.942C125.781 118.74 133.255 111.267 142.457 111.267C142.513 111.267 142.569 111.267 142.624 111.267C151.771 111.322 159.133 118.74 159.133 127.942ZM148.034 127.775C147.979 124.708 145.413 122.254 142.346 122.309C139.278 122.365 136.824 124.931 136.88 127.998C136.936 131.01 139.39 133.464 142.457 133.464C145.58 133.408 148.034 130.898 148.034 127.775Z" fill="#011640"/>
<path d="M114.626 105.801C114.57 108.868 112.005 111.267 108.993 111.211C105.925 111.155 103.527 108.59 103.583 105.578C103.639 102.51 106.204 100.112 109.216 100.168C109.272 100.168 109.328 100.168 109.328 100.168C112.339 100.279 114.682 102.789 114.626 105.801Z" fill="#011640"/>
</svg>
